<svg xmlns="http://www.w3.org/2000/svg" width="100%" height="100%" viewBox="0 0 800 600" style="max-width:800px">
  <g>
    <path fill="#4C6EF5" d="M400,100C250,100,150,200,150,300s100,200,250,200s250-100,250-200S550,100,400,100z"/>
    <path fill="#40C057" d="M400,140c-120,0-200,80-200,160s80,160,200,160s200-80,200-160S520,140,400,140z"/>
    <path fill="white" opacity="0.7" d="M400,180c-90,0-150,60-150,120s60,120,150,120s150-60,150-120S490,180,400,180z"/>
    <circle fill="#212529" cx="350" cy="280" r="20"/>
    <circle fill="#212529" cx="450" cy="280" r="20"/>
    <path fill="none" stroke="#212529" stroke-width="10" stroke-linecap="round" d="M330,340c40,40,100,40,140,0"/>
  </g>
  <g>
    <path fill="none" stroke="#4C6EF5" stroke-width="20" stroke-linecap="round" d="M100,450c30,-30 60,-30 90,0s60,30 90,0"/>
    <path fill="none" stroke="#40C057" stroke-width="20" stroke-linecap="round" d="M520,450c30,-30 60,-30 90,0s60,30 90,0"/>
    <path fill="none" stroke="#FF922B" stroke-width="20" stroke-linecap="round" d="M310,500c30,-30 60,-30 90,0s60,30 90,0"/>
  </g>
</svg>